<svg width="167" height="57" viewBox="0 0 167 57" fill="none" xmlns="http://www.w3.org/2000/svg" preserveAspectRatio="none">
<path fill-rule="evenodd" clip-rule="evenodd" d="M130.598 48.1856C131.873 47.9739 133.147 47.9929 134.373 48.371C135.049 48.5798 135.813 48.6513 136.339 49.1491C136.376 49.1842 136.346 49.2849 136.327 49.3491C136.305 49.4265 136.285 49.5389 136.224 49.5637C136.066 49.6309 135.872 49.7185 135.717 49.6922C134.471 49.4776 133.134 49.6236 132.382 49.1506C131.477 48.8615 130.969 48.7009 130.467 48.5301C130.435 48.5199 130.418 48.4104 130.438 48.3637C130.468 48.2936 130.532 48.1958 130.598 48.1856ZM134.489 51.4571C134.189 51.39 134.036 51.1404 134.145 50.9403C134.311 50.7068 134.528 50.6031 134.83 50.6761C135.12 50.7462 135.287 51.0046 135.164 51.2119C135.022 51.4469 134.783 51.5228 134.489 51.4571ZM132.777 50.8469C132.586 50.7389 132.601 50.6382 132.814 50.6031C132.871 50.5929 132.96 50.6499 133.002 50.698C133.028 50.7272 132.997 50.7973 132.991 50.8484C132.918 50.8484 132.827 50.8761 132.777 50.8469ZM127.322 46.5272C127.075 46.4673 126.828 46.3914 126.594 46.298C126.538 46.2761 126.486 46.136 126.515 46.0936C126.626 45.9345 127.07 45.9973 127.489 46.2338C127.545 46.2659 127.542 46.3739 127.567 46.4484C127.484 46.4761 127.39 46.5433 127.322 46.5272ZM116.849 4.48175C116.482 4.52116 116.113 4.57227 115.745 4.56059C115.474 4.55329 115.187 4.48905 114.934 4.39562C113.874 4.00876 112.773 4.0146 111.65 4.0511C110.729 4.08175 109.789 4.11095 108.883 3.99562C106.012 3.62774 103.136 3.83358 100.261 3.83212C99.0524 3.83066 97.8453 3.83065 96.6398 3.87736C95.2489 3.92992 93.858 4.01752 92.4705 4.12555C91.8096 4.17665 91.115 4.25401 90.567 3.93722C89.9719 3.59562 89.4139 3.50073 88.7327 3.61022C88.1899 3.69781 87.6267 3.7197 87.0721 3.71532C86.8327 3.7124 86.5949 3.6 86.3555 3.52555C86.3454 3.54015 86.337 3.55766 86.3269 3.57226C86.3117 3.56496 86.2948 3.55621 86.2797 3.54599C86.2325 3.67008 86.1583 3.69488 86.0622 3.60437C86.0554 3.59707 86.1246 3.49781 86.1549 3.49926C86.1971 3.50072 86.2375 3.52409 86.2797 3.54599C86.2847 3.53285 86.2915 3.52263 86.2965 3.50511C86.3168 3.51095 86.3353 3.51825 86.3555 3.52555C86.4331 3.39708 86.4988 3.22628 86.6101 3.2C88.4883 2.75037 90.3698 2.31971 92.3575 2.50365C93.3742 2.59854 94.3924 2.59123 95.4091 2.38831C95.9435 2.28028 96.5184 2.31094 97.0748 2.30948C97.9987 2.3051 98.9327 2.44817 99.8212 2.09926C100.831 2.21459 101.826 2.14452 102.842 2.06569C103.839 1.98832 104.871 2.22335 105.884 2.33284C106.897 2.44087 107.909 2.56934 108.922 2.68321C111.596 2.98102 114.234 3.4365 116.843 4.02045C116.945 4.0438 117.008 4.23503 117.063 4.3562C117.072 4.37226 116.929 4.47299 116.849 4.48175ZM90.6985 45.1243C90.213 44.9214 89.7308 44.7082 89.2486 44.4965C89.053 44.9389 88.9081 45.0878 88.6147 45.0469C88.4546 45.0235 88.2118 44.9491 88.1797 44.8542C88.119 44.6776 88.291 44.6031 88.5237 44.6294C88.7766 44.6571 89.048 44.714 89.2436 44.5009C89.7814 44.6089 90.3057 44.7228 90.8267 44.8498C90.8621 44.8586 90.8891 44.9797 90.8688 45.0338C90.8503 45.0776 90.7339 45.1389 90.6985 45.1243ZM83.8081 45.0425C83.1843 45.1827 82.5706 45.1856 81.9754 44.9506C81.908 44.9243 81.881 44.8235 81.8355 44.7564C81.8877 44.7111 81.935 44.6308 81.994 44.6236C82.6009 44.5535 83.2112 44.371 83.8215 44.6104C83.8957 44.6381 83.9632 44.698 84.0104 44.7564C84.125 44.8936 84.0492 44.9885 83.8081 45.0425ZM71.9036 5.34453C71.6911 5.30657 71.5866 5.19271 71.6574 5.01898C71.7249 4.85256 71.8968 4.80438 72.0873 4.88467C72.1565 4.91387 72.2306 4.99709 72.2374 5.05987C72.2542 5.24965 72.1278 5.34599 71.9036 5.34453ZM48.334 45.4659C48.189 45.5199 48.0373 45.5695 47.8889 45.6206C47.8383 45.6162 47.8046 45.606 47.7709 45.5958C47.2701 45.4673 46.7711 45.3389 46.2788 45.2177C46.2721 45.2235 46.262 45.225 46.2367 45.2075C46.2501 45.2119 46.2653 45.2148 46.2788 45.2177C46.2923 45.206 46.2856 45.1695 46.3058 45.1681C46.7947 45.3111 47.2819 45.4542 47.7709 45.5958C47.8063 45.606 47.8417 45.6148 47.8788 45.6236C47.958 45.4995 47.9664 45.3287 48.0676 45.2411C48.1553 45.1681 48.3576 45.1958 48.5093 45.19C48.5161 45.19 48.5582 45.3199 48.5296 45.3608C48.4941 45.4119 48.4065 45.4381 48.334 45.4659ZM38.4998 46.4046L38.4981 46.2542L38.6398 46.3155L38.4998 46.4046ZM25.2938 44.5068C25.2129 44.5359 25.0982 44.5797 25.0341 44.552C24.3749 44.2644 23.7157 44.0703 22.9436 44.1272C22.5322 44.1564 22.1697 43.8732 21.5324 43.4746C23.1155 43.5111 24.3075 43.5301 25.4236 43.971C25.5147 44.0075 25.518 44.2411 25.5197 44.3841C25.5214 44.425 25.3798 44.4776 25.2938 44.5068ZM21.5291 37.1242C21.4515 37.133 21.3689 37.0994 21.288 37.0834C21.1936 36.9695 21.0823 36.8629 21.0132 36.7403C20.9828 36.6848 21.0148 36.5753 21.0654 36.5242C21.1986 36.3855 21.5813 36.4308 21.7449 36.6352C21.819 36.7286 21.7836 36.9038 21.7567 37.0352C21.7482 37.0775 21.6117 37.1155 21.5291 37.1242ZM19.7504 35.1417C19.5026 35.0542 19.3525 34.7447 19.4705 34.5636C19.7504 34.1374 20.3843 34.041 20.8007 34.3914C20.8968 34.4702 20.8597 34.6673 20.8833 34.8089C20.5832 35.187 20.1955 35.3009 19.7504 35.1417ZM17.5957 40.8659C17.331 41.0892 17.0074 41.2148 16.5302 40.9914C16.4847 40.9637 16.333 40.8834 16.2015 40.7841C16.0008 40.6308 16.0801 40.2469 16.333 40.2104C16.6752 40.1622 17.0293 40.1301 17.3715 40.1564C17.5013 40.1666 17.6682 40.3447 17.7137 40.4746C17.7542 40.5885 17.6952 40.7826 17.5957 40.8659ZM25.1623 18.5898C24.7071 18.5417 24.2586 18.4497 23.8574 18.384C23.591 18.1986 23.3769 18.0497 23.1627 17.9008C22.9756 17.7679 23.0734 17.4074 23.3094 17.3139C24.2114 16.9606 24.9397 17.2395 25.5399 17.8132C25.6883 17.9548 25.6714 18.2526 25.6563 18.476C25.6529 18.5256 25.3275 18.6059 25.1623 18.5898ZM17.4676 35.2819C17.1793 35.2804 16.9079 35.2045 16.805 34.9344C16.7797 34.8687 16.8101 34.7228 16.8556 34.7082C17.1928 34.606 17.5384 34.5257 17.8705 34.441C17.9683 34.6498 18.0981 34.7885 18.0729 34.9053C18.0189 35.1695 17.7593 35.2833 17.4676 35.2819ZM13.4028 33.7724C13.128 33.7739 12.8498 33.7198 12.5817 33.6673C12.3187 33.6133 12.0641 33.5286 11.7893 33.4542C12.2479 32.8235 12.1417 32.2074 11.9394 31.5695C11.8264 31.2191 12.1114 30.9563 12.4839 30.8819C13.2426 30.7315 13.9642 30.8395 14.6622 31.0775C15.7901 31.4614 16.8286 31.9811 17.7306 32.6906C17.7913 32.7388 17.8537 32.8235 17.8486 32.8863C17.8419 32.9578 17.7745 33.0673 17.707 33.0848C16.3026 33.4585 14.8814 33.7651 13.4028 33.7724ZM13.6169 35.3958C13.1583 35.4235 12.7824 35.276 12.4823 34.9899C12.4587 34.9972 12.5345 35.114 12.5345 35.114L12.4047 34.9228C12.4283 34.949 12.457 34.9666 12.4823 34.9899C12.8936 34.8556 13.3337 34.7709 13.7821 34.9184C13.8496 34.9403 13.9254 35.0177 13.9355 35.0775C13.9625 35.2556 13.8445 35.3812 13.6169 35.3958ZM14.239 22.7913C14.094 22.7986 13.9406 22.7037 13.7906 22.6395C13.7821 22.6468 13.772 22.6526 13.7636 22.6599C13.7484 22.6556 13.7383 22.6556 13.7231 22.6497C13.6102 22.9388 13.3792 23.003 13.0656 22.9154C13.0605 22.93 13.0521 22.9373 13.0454 22.9534C13.0336 22.9432 13.0201 22.9402 13.0066 22.93C12.8785 23.2585 12.5514 23.2818 12.2159 23.2994C12.0068 23.3096 11.9141 23.222 11.9697 23.0234C11.9866 22.9592 12.054 22.8833 12.1231 22.8541C12.4351 22.7256 12.7368 22.7315 13.0066 22.93C13.0116 22.9212 13.015 22.914 13.0201 22.9052C13.0352 22.9096 13.0487 22.9096 13.0656 22.9154C13.1684 22.6147 13.396 22.5388 13.7231 22.6497C13.7299 22.638 13.7366 22.6322 13.7417 22.6176C13.7568 22.6249 13.7737 22.6322 13.7906 22.6395C14.3705 22.1388 15.0786 21.8322 15.8777 21.7256C16.1053 21.6964 16.3701 21.8439 16.6061 21.9329C16.6634 21.9548 16.7055 22.0672 16.7005 22.1359C16.6988 22.2088 16.6567 22.3139 16.5926 22.3461C15.8643 22.7125 15.0466 22.7475 14.239 22.7913ZM11.9663 27.7724C11.9191 27.8103 11.7843 27.8103 11.7236 27.7782C11.6561 27.7432 11.5786 27.6454 11.5904 27.587C11.7017 27.0585 12.108 26.5928 11.9714 26.0016C11.9141 25.7475 12.2546 25.5986 12.4957 25.5753C12.7351 25.5519 13.0656 25.6074 13.2207 25.7432C13.3691 25.8745 13.3421 26.1548 13.3606 26.2381C13.1853 27.0687 12.4873 27.3578 11.9663 27.7724ZM9.90612 28.3213C9.77967 28.3811 9.68188 28.4629 9.62625 28.4454C9.4644 28.3957 9.24691 28.3388 9.18453 28.2278C8.84734 27.6366 8.78328 27.0322 9.19128 26.4307C9.34639 26.2016 9.68357 26.06 9.83868 26.2045C9.95501 26.3125 10.1371 26.441 10.1371 26.5607C10.1287 27.1052 10.0747 27.6512 10.0208 28.1943C10.0157 28.2541 9.92129 28.3067 9.90612 28.3213ZM17.5148 23.2775C17.8115 23.4001 18.2415 23.257 18.5938 23.311C18.9411 23.365 19.2665 23.514 19.6374 23.6322C19.1013 24.187 18.4185 24.2468 17.7896 24.2614C16.9652 24.2789 16.1374 24.1534 15.3113 24.076C15.2556 24.0716 15.1899 23.9592 15.173 23.8891C15.1595 23.8337 15.1882 23.7388 15.2388 23.7052C15.9115 23.2439 16.5926 22.895 17.5148 23.2775ZM19.0406 19.4672C19.0524 19.4862 19.0608 19.495 19.0709 19.511C19.1519 19.5402 19.2345 19.568 19.3171 19.5957C19.2564 19.7139 19.1721 19.6804 19.0709 19.511C19.044 19.5212 19.0254 19.5344 19.0103 19.5475C18.9799 19.6249 18.9496 19.7096 18.9226 19.7972C18.9074 19.7534 18.8636 19.6935 18.8821 19.6658C18.9142 19.6205 18.9614 19.584 19.0103 19.5475C19.0204 19.5198 19.0305 19.4906 19.0406 19.4672ZM20.7704 16.6205C20.8462 16.4395 20.9541 16.3096 21.1699 16.3008C21.1902 16.2804 21.2104 16.2599 21.229 16.238C21.2408 16.2468 21.2526 16.2497 21.2644 16.257C21.2559 16.0833 21.3571 15.9898 21.5678 16.0161C21.6218 16.0219 21.7095 16.1723 21.6875 16.2015C21.5729 16.3504 21.4212 16.3592 21.2644 16.257C21.2644 16.2716 21.261 16.2818 21.2627 16.2964C21.2273 16.2935 21.2003 16.2993 21.1699 16.3008C20.9626 16.5183 20.7552 16.7373 20.5478 16.9548C20.6186 16.9256 20.6911 16.8774 20.7603 16.8818C20.8361 16.8862 20.9069 16.946 20.9811 16.9825C20.8193 17.1081 20.6709 17.1022 20.5411 16.9636C20.6186 16.8468 20.7181 16.7417 20.7704 16.6205ZM18.405 26.9607C18.4033 27.0089 18.2819 27.1023 18.2246 27.0979C17.9801 27.0775 17.7357 27.0337 17.4929 26.9957C17.4895 27.0074 17.4828 27.0132 17.4794 27.0249C17.4423 27.0162 17.4052 27.0089 17.3681 27.0001C16.9096 27.0775 16.5269 26.9096 16.1475 26.733C16.0834 26.7184 16.0177 26.7037 15.957 26.6906C15.9519 26.6979 15.9502 26.7052 15.9452 26.7125C16.0699 26.8132 16.0598 26.8483 15.903 26.8133C15.9182 26.7797 15.9317 26.7461 15.9452 26.7125C15.9317 26.7023 15.9233 26.6935 15.9064 26.6804C15.9216 26.6833 15.9401 26.6877 15.957 26.6906C15.9621 26.6775 15.9671 26.6643 15.9722 26.6512C16.0312 26.6775 16.0885 26.7052 16.1475 26.733C16.5505 26.8205 16.9568 26.911 17.3681 27.0001C17.3934 26.9957 17.4187 26.9943 17.4457 26.9884C17.4625 26.9913 17.4777 26.9928 17.4929 26.9957C17.5789 26.7592 17.7795 26.657 18.0695 26.66C18.2785 26.66 18.4067 26.7636 18.405 26.9607ZM22.0635 19.2351C22.1124 19.2541 22.1259 19.346 22.1562 19.4059C22.0871 19.4293 22.018 19.4541 21.9489 19.4775C21.8915 19.4366 21.7954 19.403 21.7836 19.3533C21.755 19.2147 21.8679 19.1621 22.0635 19.2351ZM7.5441 26.5972C7.53399 26.4629 7.47836 26.314 7.53062 26.2045C7.56434 26.1388 7.76664 26.1359 7.89309 26.1052C7.90152 26.2351 7.91164 26.3651 7.92007 26.495C7.79362 26.5286 7.66886 26.5621 7.5441 26.5972ZM15.1123 9.00439C15.082 8.94162 15.0533 8.87886 15.023 8.81754C15.0955 8.79127 15.1848 8.73286 15.2371 8.75184C15.2877 8.77082 15.3011 8.86718 15.3298 8.92996C15.2573 8.95477 15.1865 8.97958 15.1123 9.00439ZM12.0776 10.0599C11.9832 9.9358 11.8349 9.81754 11.8079 9.68323C11.7202 9.24527 12.0203 8.93726 12.5261 8.89346C13.0049 8.85112 13.4668 9.11828 13.5225 9.4774C13.5326 9.5504 13.5174 9.6409 13.4736 9.70367C13.219 10.0701 12.58 10.2278 12.0776 10.0599ZM9.95669 17.2059C9.89431 17.1606 9.78305 17.1139 9.78305 17.0687C9.78305 16.8964 9.92299 16.8468 10.1236 16.9577C10.1809 16.9898 10.1877 17.092 10.2163 17.1621C10.1303 17.1767 10.0427 17.1913 9.95669 17.2059ZM162.136 35.7213C161.22 35.3286 160.273 34.9899 159.352 34.6074C159.109 34.5067 158.909 34.3242 158.698 34.1709C158.455 33.9928 158.518 33.46 158.829 33.3388C159.162 33.2089 159.531 33.149 159.907 33.0527C159.757 32.66 159.711 32.4191 159.58 32.222C159.291 31.7855 159.506 31.3899 160.003 31.2965C160.362 31.2293 160.719 31.1636 161.073 31.0804C161.126 31.0687 161.178 30.968 161.181 30.9052C161.185 30.8366 161.159 30.7228 161.104 30.6979C160.027 30.2162 159.069 29.603 158.319 28.7695C158.283 28.7286 158.33 28.6016 158.381 28.5417C158.421 28.495 158.546 28.4498 158.6 28.4687C159.278 28.7154 159.941 28.9972 160.627 29.2206C160.967 29.33 161.35 29.368 161.714 29.3811C161.863 29.3855 162.021 29.241 162.163 29.149C162.173 29.1432 162.1 29.0001 162.034 28.9534C161.895 28.8527 161.728 28.7782 161.583 28.6804C161.51 28.6337 161.412 28.5578 161.417 28.4994C161.431 28.3111 161.579 28.2264 161.805 28.2468C161.991 28.2629 162.181 28.3154 162.358 28.2906C162.508 28.2702 162.776 28.133 162.766 28.0979C162.475 27.1184 163.439 26.6643 163.962 26.0687C164.341 25.6351 164.983 25.3899 165.713 25.5548C166.067 25.6351 166.447 25.6395 166.816 25.657C166.877 25.66 167.008 25.549 167 25.5096C166.971 25.387 166.924 25.1986 166.824 25.1651C166.482 25.0468 166.118 24.9738 165.755 24.9023C164.857 24.7271 163.955 24.5621 163.054 24.3913C162.237 23.7505 161.256 24.3724 160.367 24.1373C159.841 23.9972 159.224 24.0366 158.813 23.6789C157.941 22.9183 156.827 22.5286 155.766 22.0424C155.458 21.9008 155.222 21.6147 155.011 21.3577C154.873 21.1884 155.012 21.0877 155.2 21.0045C155.763 20.7577 155.839 20.476 155.434 20.222C154.61 19.7023 153.77 19.2045 152.939 18.6906C152.485 18.4103 152.035 18.1242 151.595 17.8293C151.233 17.5869 150.663 17.5519 150.519 17.0541C151.477 17.0891 152.403 17.1373 153.328 17.1431C153.455 17.1446 153.659 16.9621 153.694 16.8365C153.758 16.6117 153.708 16.365 153.728 16.13C153.762 15.7329 153.981 15.511 154.345 15.4278C154.802 15.3212 155.257 15.2774 155.709 15.4365C156.314 15.6468 156.908 15.8818 157.521 16.0672C160.15 16.8526 162.81 17.5636 165.28 18.7037C165.455 18.784 165.787 18.6074 166.084 18.5431C165.961 18.3913 165.895 18.2628 165.784 18.184C165.642 18.0833 165.435 18.0482 165.304 17.9402C163.53 16.4701 161.404 15.5271 159.167 14.6906C157.803 14.1811 156.437 13.676 155.07 13.1723C153.79 12.7008 152.568 12.1139 151.302 11.6117C148.933 10.673 146.549 9.76353 144.179 8.83068C143.846 8.69929 143.545 8.50951 143.241 8.33432C143.187 8.30367 143.169 8.20294 143.174 8.13725C143.179 8.05987 143.206 7.93724 143.263 7.91534C143.949 7.67009 144.659 7.46718 145.332 7.19564C145.859 6.98104 146.235 6.61315 146.165 6.05987C146.107 5.60877 146.399 5.06862 145.768 4.74745C145.138 4.42774 144.721 4.77519 144.312 5.11096C143.427 5.83213 142.415 6.08613 141.232 5.77518C141.065 5.73139 140.869 5.76643 140.77 5.76497C140.569 5.97373 140.429 6.26717 140.23 6.30221C138.671 6.58104 137.109 6.65987 135.553 6.22922C134.402 5.91097 133.233 5.64235 132.073 5.34745C131.269 5.14453 130.472 4.92556 129.666 4.73286C128.231 4.39125 126.791 4.06422 125.355 3.72992C124.815 3.60583 124.283 3.46569 123.74 3.35766C121.838 2.98102 119.933 2.62043 118.031 2.24379C117.782 2.19415 117.728 2.06714 117.858 1.94159C118.921 1.77662 119.992 1.90801 121.063 1.98101C120.557 1.24232 119.798 0.966413 118.797 0.913858C114.717 0.700718 110.632 0.665684 106.552 0.515318C104.975 0.456924 103.397 0.465676 101.849 0.10655C101.325 -0.0146181 100.745 0.0218834 100.19 0.0204236C98.7979 0.016044 97.4036 0.0656743 96.0127 0.0335573C91.265 -0.0773921 86.5359 0.0758961 81.8321 0.656921C79.1649 0.985389 76.4944 1.31094 73.8424 1.72116C72.1008 1.98978 70.3677 2.2467 68.5924 2.25254C68.3192 2.254 68.0124 2.23503 67.7797 2.33138C66.6535 2.79561 65.4278 2.79561 64.2359 2.93576C59.4461 3.50365 54.6529 4.0511 49.8598 4.60293C47.3561 4.89052 44.8542 4.87007 42.3573 4.56934C42.1988 4.5489 42.0403 4.42481 41.9189 4.31678C41.7841 4.19561 42.0488 3.98685 42.4922 3.89488C43.3065 3.72554 44.1275 3.58395 44.9368 3.4C45.2656 3.32555 45.5724 3.18394 45.8893 3.06715C45.542 2.83211 45.1509 2.71679 44.6974 2.79416C43.3284 3.0292 41.9291 3.18248 40.5955 3.52263C38.3397 4.09927 36.0687 4.28906 33.7168 4.31096C30.6551 4.33723 27.5968 4.63358 24.5368 4.82045C24.1659 4.84234 23.795 4.88906 23.4308 4.95184C21.8797 5.22191 20.3455 5.62337 18.7793 5.74745C17.0815 5.88322 15.581 6.55767 13.9372 6.81606C12.6475 7.02044 11.474 7.53432 10.3563 8.13432C9.8589 8.40294 9.52847 8.77375 9.27726 9.21462C9.13227 9.47156 9.20982 9.66718 9.48632 9.82047C9.64311 9.9066 9.79485 10.003 9.92973 10.1139C10.1472 10.2935 10.2383 10.5051 10.073 10.7562C9.73584 11.2672 9.30929 11.6716 8.5759 11.7183C8.21174 11.7402 7.7616 11.6672 7.55085 11.9665C7.15634 12.5329 6.68258 12.6847 5.92391 12.5504C5.31697 12.4424 4.93594 12.9037 4.6173 13.3081C4.34417 13.6541 4.33743 14.1548 4.63921 14.4322C5.08262 14.8395 5.57828 15.2015 6.01831 15.6088C6.07732 15.6628 5.97111 15.8745 5.90368 15.9971C5.87164 16.057 5.75194 16.0833 5.67101 16.1212C5.35406 16.2687 4.95617 16.3563 4.74037 16.5767C4.47567 16.8511 4.75216 17.1665 4.89884 17.4614C5.02865 17.7227 4.85332 17.9855 4.59031 18.0439C4.4116 18.0847 4.23459 18.1636 4.05419 18.165C3.08983 18.1796 2.25358 18.346 1.71914 19.1694C1.5674 19.4015 1.09702 19.476 0.771633 19.622C0.608096 19.6964 0.414209 19.7417 0.284391 19.8453C0.157944 19.9461 0.0180089 20.1125 0.0298106 20.241C0.0382403 20.3475 0.242258 20.5066 0.385564 20.53C1.04983 20.641 1.68374 20.584 2.19121 20.1315C3.26179 19.1767 4.65775 19.1081 6.06552 19.0701C6.88489 19.4482 7.69584 19.2191 8.51352 19.0541C9.05471 18.9446 9.60265 18.8672 10.2028 18.7665C10.567 19.0424 10.9093 19.3037 11.2549 19.5607C11.5567 19.7869 11.9428 19.9212 12.2715 19.73C12.7621 19.4439 13.2915 19.3884 13.8394 19.3052C14.0805 19.2687 14.4262 19.0979 14.4852 18.9271C14.7633 18.1183 15.4799 18.0439 16.2504 18.0716C17.0782 18.1008 17.9076 18.1723 18.7304 18.2599C18.8214 18.2701 18.985 18.565 18.9361 18.6366C18.5635 19.1869 18.1555 19.7212 17.7357 20.2453C17.6362 20.3709 17.4625 20.4745 17.2956 20.5329C16.3532 20.8745 15.431 21.3665 14.4481 21.4862C13.1414 21.6439 11.9562 22.1402 10.6597 22.2891C10.0933 22.3548 9.62962 22.6278 9.26883 23.0307C9.10192 23.2176 8.86588 23.3592 8.65683 23.5169C8.44777 23.6745 8.07687 23.5417 8.01111 23.2731C7.91839 22.895 7.84925 22.511 7.76833 22.1242C7.08383 22.2774 6.65392 22.8045 5.96268 22.7519C5.71147 23.1373 5.95762 23.5067 6.02168 23.8848C6.06721 24.1607 5.89186 24.3694 5.55636 24.3578C5.11801 24.3417 4.66114 24.5388 4.18064 24.2658C4.48411 23.2293 3.23819 22.8629 2.85042 22.0935C2.83356 22.0556 2.47951 22.076 2.36149 22.1548C0.97227 23.1037 0.41758 24.457 0.00957999 25.8746C-0.0106514 25.9461 0.00116424 26.0439 0.0449989 26.1052C0.134354 26.2366 0.250675 26.3578 0.372063 26.4702C0.385551 26.4818 0.53054 26.4308 0.559201 26.384C0.940226 25.749 1.28924 25.0979 1.69386 24.4731C1.98385 24.0264 2.74421 24.1081 3.04094 24.5899C3.08308 24.6599 3.13702 24.7271 3.17411 24.8001C3.50793 25.4527 3.72712 26.1446 4.36778 26.6731C4.57009 26.8395 4.48073 27.2716 4.53131 27.6308C5.0489 28.0381 5.69462 28.2862 6.49038 28.2673C6.90007 28.2585 7.20355 28.5724 7.17151 28.8643C7.11925 29.3432 7.01471 29.8176 6.99111 30.295C6.98099 30.5198 7.10238 30.7505 7.18499 30.9739C7.20523 31.0279 7.30469 31.0906 7.36876 31.0921C7.45305 31.0936 7.59804 31.0541 7.61659 31.0045C7.79193 30.5519 7.93692 30.0921 8.1072 29.6381C8.20836 29.3738 8.75124 29.2205 9.04123 29.3549C10.0056 29.8045 10.6985 30.4089 10.5299 31.4483C10.4507 31.933 10.5518 32.4001 10.5839 32.8775C10.6395 33.7096 10.0022 34.3987 9.06483 34.6804C8.34999 34.8965 7.62335 34.9607 6.87479 34.9417C6.72136 34.9388 6.55446 35.0469 6.41284 35.1286C6.35551 35.1622 6.3218 35.2658 6.32854 35.333C6.33697 35.4074 6.38586 35.5155 6.45161 35.5417C6.99449 35.7563 7.53736 35.552 8.07518 35.5038C9.04123 35.4177 9.65154 35.8483 10.1118 36.5052C10.3816 36.8907 10.6311 37.2877 10.889 37.6804C11.1031 37.2819 11.3139 36.8819 11.5398 36.4892C11.7033 36.2045 12.0759 36.0323 12.4603 36.1578C12.8127 36.2731 13.1364 36.3199 13.509 36.3096C13.7973 36.3023 14.1159 36.7549 14.0856 37.0294C14.0671 37.1885 14.0654 37.3534 14.0063 37.5009C13.8614 37.8571 13.6911 38.2075 13.5292 38.5593C13.6354 38.6556 13.7568 38.7461 13.831 38.8585C13.9001 38.9637 13.9052 39.1009 13.9372 39.2235C13.7939 39.187 13.6489 39.1505 13.5056 39.1126C13.4483 39.0951 13.391 39.0746 13.3337 39.0542C13.2831 39.3564 13.1263 39.7096 13.2645 39.9199C13.8698 40.8396 14.6841 41.5899 15.925 41.9053C16.9045 42.1534 17.8773 42.4235 18.8433 42.7097C19.3542 42.86 19.43 43.0994 19.2092 43.6279C19.0558 43.99 18.9007 44.352 18.7253 44.7593C18.2414 44.7316 17.7846 44.6819 17.3294 44.6922C17.1861 44.6951 16.9939 44.8396 16.9247 44.9622C16.859 45.079 16.8607 45.2834 16.9382 45.3943C17.0781 45.5914 17.2602 45.8075 17.4895 45.9111C18.6393 46.4294 19.8094 46.9184 20.9744 47.4104C21.5459 47.6528 21.7803 48.0352 21.728 48.5827C21.7162 48.7185 21.8427 48.863 21.9236 49.0425C22.1647 48.9214 22.4597 48.8469 22.6215 48.6776C23.0515 48.2279 23.5151 47.8615 24.2198 47.809C24.8824 47.7593 25.454 47.9126 26.0727 48.171C27.4788 48.7608 28.9051 49.3768 30.5725 49.1768C31.021 49.1228 31.5015 49.2031 31.955 49.279C32.798 49.4206 33.619 49.4309 34.4148 49.1126C35.0217 48.8703 35.6438 48.825 36.3132 48.8586C37.3348 48.9111 38.3532 48.8688 39.3428 49.1798C39.7862 49.3199 40.2701 49.2528 40.6646 48.9827C41.0507 48.7199 41.5042 48.6688 41.9678 48.6119C43.8072 48.3841 45.6483 48.2425 47.5096 48.3739C48.6172 48.4513 49.7333 48.5476 50.8275 48.2148C50.991 47.3681 51.1074 47.2192 51.9352 47.2469C52.7883 47.2761 53.6076 47.2265 54.3899 46.9214C55.914 46.3257 57.4499 46.352 59.0061 46.8221C59.3567 46.9272 59.7175 47.0542 60.08 47.0703C60.5032 47.0892 60.2992 46.5155 60.7341 46.4557C61.4591 46.3564 62.1638 46.2484 62.8601 45.9681C63.6053 45.6688 64.482 45.6659 65.3216 45.8236C65.6032 45.8761 65.9252 46.1885 65.9505 46.5257C65.9606 46.663 65.9319 46.8031 65.9117 46.9433C66.1545 47.0075 66.4057 47.1243 66.6299 47.0936C67.3633 46.9914 68.0781 46.8002 68.8082 46.6834C71.0657 46.3243 73.2169 46.3564 75.1962 47.6309C76.2331 48.298 77.3424 48.8966 78.4164 49.5287C80.7851 50.9243 82.9718 52.5593 85.5834 53.6411C86.251 53.917 86.9338 54.225 87.4817 54.644C88.2117 55.2017 89.0497 55.4864 89.9416 55.7258C90.9177 55.99 91.8686 56.4353 92.8599 56.5112C94.0637 56.6046 95.2506 56.6747 96.4089 56.9886C96.4898 57.0105 96.6061 57.0002 96.6786 56.9637C96.8303 56.8878 96.9939 56.8032 97.0967 56.6849C97.2552 56.5024 97.122 56.174 96.9399 56.0499C96.4729 55.7316 95.9115 55.6791 95.3669 55.6061C92.0237 55.1477 88.8996 54.1156 85.8666 52.863C85.29 52.625 84.7438 52.2863 84.2767 51.9082C83.9868 51.6732 83.7002 51.5681 83.3377 51.4922C82.9853 51.4177 82.6262 51.2966 82.3261 51.1243C80.6958 50.1914 79.0975 49.2177 77.4605 48.298C76.754 47.9024 76.1033 47.4732 75.5654 46.9097C75.8537 46.4849 76.341 46.5272 76.7675 46.5506C78.993 46.6673 81.2168 46.7214 83.4473 46.7272C85.3929 46.7316 87.3368 46.8542 89.2807 46.9199C91.2111 46.9856 93.1533 47.1155 95.0854 47.2674C95.4479 47.2951 95.8188 47.2352 96.1863 47.2294C96.3549 47.2279 96.6213 47.2075 96.6769 47.2849C97.3311 48.19 98.3881 47.6688 99.2429 47.8206C99.4823 47.863 99.8263 47.3725 100.096 47.3914C101.389 47.4878 102.706 47.3579 103.979 47.6484C104.335 47.7301 104.778 47.7476 105.017 47.9462C105.725 48.5301 106.853 48.2206 107.514 48.9141C107.743 49.1549 108.207 49.0469 108.565 48.9082C108.907 48.7739 109.271 48.6849 109.639 48.8221C110.337 49.0834 111.072 49.1082 111.813 49.1798C112.919 49.2863 114.059 49.4046 115.086 49.7433C115.929 50.0206 116.617 50.6382 117.391 51.0834C118.395 51.6601 119.409 52.2265 120.434 52.7739C120.825 52.9812 121.245 53.2309 121.68 53.2791C122.936 53.4207 123.831 54.2878 124.986 54.5024C126.161 54.7185 127.376 54.752 128.499 55.19C128.749 55.2878 129.034 55.3316 129.307 55.3681C129.484 55.39 129.693 55.3958 129.85 55.336C129.991 55.2805 130.092 55.1301 130.19 55.009C130.209 54.9856 130.14 54.8674 130.082 54.8469C129.405 54.5915 128.717 54.352 128.037 54.0966C126.852 53.6513 125.52 53.4864 124.512 52.6893C124.337 52.5491 124.004 52.555 123.743 52.4951C122.668 52.2469 121.556 52.0849 120.565 51.6177C120.246 51.4674 119.96 51.2513 119.704 51.025C119.618 50.9491 119.653 50.7462 119.678 50.6075C119.688 50.552 119.817 50.4849 119.899 50.4761C120.172 50.444 120.457 50.3958 120.727 50.4265C121.922 50.5637 123.113 50.7214 124.305 50.879C124.61 50.9199 124.664 51.1039 124.475 51.3608C124.391 51.4776 124.234 51.644 124.276 51.717C124.342 51.8323 124.536 51.9302 124.694 51.9594C125.259 52.063 125.8 51.9331 126.338 51.7915C126.598 51.7228 126.881 51.6061 127.132 51.6382C128.046 51.7608 129.042 51.7812 129.838 52.1316C130.971 52.6309 132.17 52.6104 133.333 52.8411C134.766 53.1272 136.324 52.9301 137.644 53.6659C137.79 53.7477 138 53.7681 138.183 53.7725C139.573 53.8075 140.962 53.8688 142.349 53.844C143.036 53.8309 143.614 53.917 144.179 54.2747C144.455 54.4513 144.86 54.5462 145.21 54.5535C146.364 54.5769 147.387 54.9039 148.383 55.3754C149.012 55.6732 149.768 55.4922 150.059 54.9915C150.476 54.2732 150.86 53.5404 151.214 52.7973C151.312 52.5885 151.376 52.2221 151.244 52.1039C150.703 51.6134 150.685 50.9199 150.253 50.4046C150.236 50.3827 150.071 50.425 150.002 50.4703C149.939 50.5126 149.865 50.5988 149.87 50.6615C149.953 51.7301 148.999 52.5535 148.955 53.6031C148.941 53.9491 148.25 54.2469 147.846 54.1535C146.947 53.9477 146.045 53.7462 145.168 53.482C144.63 53.3199 144.133 53.2688 143.555 53.2893C142.425 53.3272 141.339 53.0995 140.523 52.3039C140.131 51.9229 139.535 51.8922 139.009 51.7433C138.669 51.6484 138.342 51.5112 138.015 51.3812C137.996 51.3739 138.008 51.225 138.038 51.2148C138.424 51.079 138.652 50.9185 138.325 50.5433C138.101 50.2893 137.89 50.0192 137.738 49.7301C137.678 49.6148 137.732 49.3783 137.836 49.2849C138.419 48.7754 138.977 48.2382 139.967 48.3739C141.348 48.5622 142.713 48.0776 144.106 48.2367C144.153 48.2425 144.303 47.9827 144.288 47.8571C144.273 47.7243 144.116 47.4951 144.023 47.4965C141.79 47.517 139.584 47.2542 137.369 47.063C136.366 46.9783 135.341 46.8732 134.344 47.1695C134.324 47.1666 134.309 47.1549 134.294 47.1447C133.586 46.7622 132.76 46.9447 132.006 46.7914C131.972 46.7841 131.935 46.679 131.949 46.6279C131.967 46.5608 132.018 46.4878 132.082 46.4469C132.384 46.2484 132.736 46.1447 133.07 46.3345C133.496 46.5768 133.888 46.8673 134.294 47.1447C134.309 47.1535 134.326 47.1579 134.341 47.1681C134.407 46.9418 134.403 46.663 134.56 46.4995C134.715 46.3389 135.032 46.2396 135.292 46.2177C135.653 46.1885 136.025 46.2644 136.395 46.2834C137.87 46.3579 139.347 46.3316 140.822 46.26C141.2 46.2425 141.436 46.0469 141.289 45.8732C141.186 45.752 141.034 45.5739 140.901 45.571C139.417 45.5447 137.942 45.3506 136.47 45.3345C134.985 45.3184 133.527 45.2659 132.075 45.0002C131.927 44.9739 131.74 45.0951 131.571 45.1462C131.342 45.0878 131.111 45.0294 130.882 44.9681C130.802 44.9462 130.662 44.917 130.661 44.8863C130.649 44.7038 130.769 44.6702 130.974 44.7885C131.177 44.9053 131.381 45.0221 131.583 45.1374C132.2 44.8323 132.743 44.4206 133.566 44.5213C134.102 44.587 134.678 44.3856 135.223 44.4323C137.453 44.6265 139.684 44.4279 141.913 44.4776C142.749 44.4965 143.594 44.3987 144.421 44.4673C145.214 44.5345 145.991 44.7491 146.827 44.9082C146.385 44.2951 145.814 43.9141 145.173 43.5768C144.787 43.371 144.455 43.079 144.128 42.8002C144.01 42.698 143.981 42.5184 143.909 42.3739C144.13 41.9432 144.351 41.5111 144.576 41.0659C144.325 40.714 144.071 40.3899 143.858 40.0454C143.713 39.8104 143.808 39.5768 144.037 39.4133C144.177 39.3126 144.371 39.2717 144.524 39.1841C145.124 38.8469 145.153 38.8337 144.907 38.2469C144.772 37.9228 144.688 37.6381 144.963 37.3564C145.566 36.7359 146.234 36.1841 147.105 35.8439C147.35 35.7476 147.574 35.6118 147.792 35.4731C147.827 35.4498 147.8 35.2702 147.768 35.2629C147.505 35.1972 147.235 35.1461 146.964 35.1082C146.724 35.0746 146.586 34.9695 146.674 34.8118C146.745 34.6863 146.898 34.5593 147.046 34.5155C147.306 34.4381 147.593 34.3855 147.867 34.3899C149.257 34.4118 150.614 34.2877 151.99 34.0614C154.026 33.7271 156.068 33.8147 157.953 34.7213C158.44 34.9549 158.959 35.1417 159.415 35.4118C160.345 35.9651 161.384 36.3082 162.419 36.6585C162.495 36.6834 162.67 36.6556 162.677 36.6308C162.705 36.5038 162.753 36.3374 162.685 36.2454C162.539 36.0469 162.365 35.8191 162.136 35.7213Z" fill="white"/>
</svg>
